<svg width="26" height="26" viewBox="0 0 26 26" fill="none" xmlns="http://www.w3.org/2000/svg">
<path fill-rule="evenodd" clip-rule="evenodd" d="M5.63335 1.51668C5.83795 1.24389 6.15903 1.08334 6.50002 1.08334H19.5C19.841 1.08334 20.1621 1.24389 20.3667 1.51668L23.6167 5.85001C23.7573 6.03753 23.8334 6.26561 23.8334 6.50001V21.6667C23.8334 22.5286 23.4909 23.3553 22.8815 23.9648C22.272 24.5743 21.4453 24.9167 20.5834 24.9167H5.41669C4.55473 24.9167 3.72808 24.5743 3.11859 23.9648C2.5091 23.3553 2.16669 22.5286 2.16669 21.6667V6.50001C2.16669 6.26561 2.24271 6.03753 2.38335 5.85001L5.63335 1.51668ZM7.04169 3.25001L4.33335 6.86112V21.6667C4.33335 21.954 4.44749 22.2295 4.65065 22.4327C4.85382 22.6359 5.12937 22.75 5.41669 22.75H20.5834C20.8707 22.75 21.1462 22.6359 21.3494 22.4327C21.5526 22.2295 21.6667 21.954 21.6667 21.6667V6.86112L18.9584 3.25001H7.04169Z" fill="#696969"/>
<path fill-rule="evenodd" clip-rule="evenodd" d="M2.16669 6.50001C2.16669 5.9017 2.65171 5.41668 3.25002 5.41668H22.75C23.3483 5.41668 23.8334 5.9017 23.8334 6.50001C23.8334 7.09832 23.3483 7.58334 22.75 7.58334H3.25002C2.65171 7.58334 2.16669 7.09832 2.16669 6.50001Z" fill="#696969"/>
<path fill-rule="evenodd" clip-rule="evenodd" d="M8.66669 9.75001C9.265 9.75001 9.75002 10.235 9.75002 10.8333C9.75002 11.6953 10.0924 12.5219 10.7019 13.1314C11.3114 13.7409 12.1381 14.0833 13 14.0833C13.862 14.0833 14.6886 13.7409 15.2981 13.1314C15.9076 12.5219 16.25 11.6953 16.25 10.8333C16.25 10.235 16.735 9.75001 17.3334 9.75001C17.9317 9.75001 18.4167 10.235 18.4167 10.8333C18.4167 12.2699 17.846 13.6477 16.8302 14.6635C15.8144 15.6793 14.4366 16.25 13 16.25C11.5634 16.25 10.1857 15.6793 9.16986 14.6635C8.15404 13.6477 7.58335 12.2699 7.58335 10.8333C7.58335 10.235 8.06838 9.75001 8.66669 9.75001Z" fill="#696969"/>
</svg>
